<svg width="800" height="800" viewBox="0 0 800 800" fill="none" xmlns="http://www.w3.org/2000/svg">
<rect width="800" height="800" fill="white"/>
<path d="M119.164 678.879C114.652 678.879 111.107 677.531 108.529 674.836C105.951 672.082 104.662 668.332 104.662 663.586V581.848H81.8984C78.5586 581.848 75.7754 580.705 73.5488 578.42C71.3223 576.135 70.209 573.322 70.209 569.982C70.209 566.525 71.3223 563.684 73.5488 561.457C75.7754 559.172 78.5586 558.029 81.8984 558.029H156.693C160.033 558.029 162.787 559.172 164.955 561.457C167.182 563.684 168.295 566.525 168.295 569.982C168.295 573.381 167.182 576.223 164.955 578.508C162.787 580.734 160.033 581.848 156.693 581.848H133.754V663.586C133.754 668.332 132.436 672.082 129.799 674.836C127.221 677.531 123.676 678.879 119.164 678.879ZM182.797 657.785L168.295 602.941C167.943 601.301 167.68 600.041 167.504 599.162C167.387 598.225 167.328 597.404 167.328 596.701C167.328 592.717 168.617 589.523 171.195 587.121C173.773 584.719 177.172 583.518 181.391 583.518C188.891 583.518 193.344 587.883 194.75 596.613L204.418 650.578H205.648L217.865 598.898C219.037 593.625 220.912 589.758 223.49 587.297C226.127 584.777 229.643 583.518 234.037 583.518C238.549 583.518 242.152 584.807 244.848 587.385C247.602 589.904 249.564 593.742 250.736 598.898L263.041 650.578H264.359L274.643 596.965C275.404 592.688 276.957 589.377 279.301 587.033C281.645 584.689 284.574 583.518 288.09 583.518C292.367 583.518 295.766 584.719 298.285 587.121C300.805 589.523 302.064 592.6 302.064 596.35C302.064 597.17 301.947 598.166 301.713 599.338C301.479 600.51 301.186 601.828 300.834 603.293L285.629 657.785C283.52 665.461 280.912 670.91 277.807 674.133C274.701 677.297 270.688 678.879 265.766 678.879C260.492 678.879 256.303 677.297 253.197 674.133C250.092 670.969 247.631 665.52 245.814 657.785L234.652 614.543H233.598L222.699 657.785C220.941 665.52 218.539 670.969 215.492 674.133C212.445 677.297 208.227 678.879 202.836 678.879C197.797 678.879 193.666 677.238 190.443 673.957C187.221 670.676 184.672 665.285 182.797 657.785ZM317.094 560.139C317.094 556.154 318.529 552.873 321.4 550.295C324.271 547.717 327.904 546.428 332.299 546.428C336.752 546.428 340.385 547.717 343.197 550.295C346.068 552.873 347.504 556.154 347.504 560.139C347.504 564.182 346.068 567.492 343.197 570.07C340.385 572.648 336.752 573.938 332.299 573.938C327.904 573.938 324.271 572.648 321.4 570.07C318.529 567.492 317.094 564.182 317.094 560.139ZM346.449 663.41C346.449 668.449 345.219 672.287 342.758 674.924C340.297 677.561 336.811 678.879 332.299 678.879C327.846 678.879 324.389 677.561 321.928 674.924C319.467 672.287 318.236 668.449 318.236 663.41V598.811C318.236 593.771 319.467 589.934 321.928 587.297C324.389 584.66 327.846 583.342 332.299 583.342C336.811 583.342 340.297 584.66 342.758 587.297C345.219 589.934 346.449 593.771 346.449 598.811V663.41ZM454.994 663.498C454.994 673.752 450.277 678.879 440.844 678.879C431.41 678.879 426.693 673.723 426.693 663.41V623.332C426.693 617.941 425.404 613.723 422.826 610.676C420.307 607.629 416.732 606.105 412.104 606.105C408.822 606.105 405.951 606.926 403.49 608.566C401.029 610.148 399.125 612.434 397.777 615.422C396.43 618.352 395.756 621.896 395.756 626.057V663.41C395.756 673.723 391.068 678.879 381.693 678.879C377.123 678.879 373.607 677.561 371.146 674.924C368.744 672.229 367.543 668.391 367.543 663.41V598.283C367.543 593.654 368.773 590.021 371.234 587.385C373.695 584.689 377.064 583.342 381.342 583.342C390.014 583.342 394.555 587.883 394.965 596.965V600.393H396.371C397.543 596.818 399.447 593.713 402.084 591.076C404.721 588.439 407.914 586.389 411.664 584.924C415.414 583.459 419.516 582.727 423.969 582.727C433.871 582.727 441.518 585.627 446.908 591.428C452.299 597.17 454.994 605.344 454.994 615.949V663.498ZM470.99 659.367C470.99 656.438 471.928 654.094 473.803 652.336C475.736 650.52 478.227 649.611 481.273 649.611C482.914 649.611 484.496 649.934 486.02 650.578C487.543 651.164 489.447 652.16 491.732 653.566C495.482 655.91 498.852 657.609 501.84 658.664C504.828 659.66 507.934 660.158 511.156 660.158C513.852 660.158 516.166 659.836 518.1 659.191C520.033 658.488 521.527 657.492 522.582 656.203C523.637 654.914 524.164 653.42 524.164 651.721C524.164 650.139 523.725 648.732 522.846 647.502C521.967 646.271 520.59 645.188 518.715 644.25C516.898 643.312 514.555 642.521 511.684 641.877L498.588 639.064C489.506 637.131 482.826 633.967 478.549 629.572C474.33 625.178 472.221 619.406 472.221 612.258C472.221 606.164 473.861 600.861 477.143 596.35C480.482 591.779 485.17 588.234 491.205 585.715C497.24 583.137 504.33 581.848 512.475 581.848C516.869 581.848 521.088 582.258 525.131 583.078C529.232 583.898 532.953 585.129 536.293 586.77C540.102 588.527 543.002 590.666 544.994 593.186C547.045 595.705 548.07 598.43 548.07 601.359C548.07 604.23 547.104 606.516 545.17 608.215C543.295 609.855 540.834 610.676 537.787 610.676C536.381 610.676 534.857 610.441 533.217 609.973C531.635 609.445 529.643 608.508 527.24 607.16C523.725 605.109 520.736 603.703 518.275 602.941C515.814 602.121 513.383 601.711 510.98 601.711C507.289 601.711 504.389 602.531 502.279 604.172C500.229 605.812 499.203 607.951 499.203 610.588C499.203 612.873 500.053 614.689 501.752 616.037C503.451 617.385 506.088 618.439 509.662 619.201L526.186 622.541C531.869 623.713 536.527 625.471 540.16 627.814C543.852 630.158 546.605 633.117 548.422 636.691C550.238 640.207 551.146 644.367 551.146 649.172C551.146 655.559 549.477 661.096 546.137 665.783C542.855 670.412 538.109 673.986 531.898 676.506C525.746 679.025 518.305 680.285 509.574 680.285C504.301 680.285 499.32 679.787 494.633 678.791C490.004 677.795 485.932 676.418 482.416 674.66C478.725 672.785 475.883 670.529 473.891 667.893C471.957 665.256 470.99 662.414 470.99 659.367ZM574.877 678.967C570.951 678.967 567.729 677.854 565.209 675.627C562.748 673.4 561.518 670.529 561.518 667.014C561.518 665.549 561.723 663.908 562.133 662.092C562.602 660.217 563.334 657.814 564.33 654.885L590.873 577.102C593.217 570.012 596.264 564.914 600.014 561.809C603.764 558.703 608.803 557.15 615.131 557.15C621.459 557.15 626.469 558.703 630.16 561.809C633.852 564.855 636.898 569.953 639.301 577.102L665.756 654.885C667.338 659.689 668.129 663.527 668.129 666.398C668.129 670.207 666.869 673.254 664.35 675.539C661.83 677.824 658.49 678.967 654.33 678.967C650.463 678.967 647.328 677.854 644.926 675.627C642.582 673.4 640.678 669.797 639.213 664.816L634.643 650.49H594.301L589.643 664.816C588.236 669.914 586.391 673.547 584.105 675.715C581.82 677.883 578.744 678.967 574.877 678.967ZM600.277 629.484H628.754L615.307 584.045H613.9L600.277 629.484ZM698.363 678.879C693.676 678.879 690.043 677.531 687.465 674.836C684.945 672.082 683.686 668.215 683.686 663.234V572.795C683.686 567.756 684.945 563.889 687.465 561.193C689.984 558.498 693.559 557.15 698.188 557.15C702.816 557.15 706.391 558.527 708.91 561.281C711.488 563.977 712.777 567.814 712.777 572.795V663.234C712.777 668.215 711.518 672.082 708.998 674.836C706.537 677.531 702.992 678.879 698.363 678.879Z" fill="#303030"/>
<path fill-rule="evenodd" clip-rule="evenodd" d="M376.183 196.763C355.344 150.646 298.021 139.431 264.249 140.022C249.729 140.022 235.956 144.096 223.539 150.239C245.537 158.613 266.084 173.13 276.865 196.989C278.371 200.322 279.885 203.669 281.4 207.02L281.432 207.092L281.433 207.092C297.692 243.049 314.125 279.392 323.564 302.956C327.635 313.118 320.09 323.325 309.099 323.325H290.418C287.331 323.325 284.829 325.816 284.829 328.889V408.592C284.829 417.809 277.321 425.281 268.061 425.281H217.536C211.977 425.281 207.051 427.973 204 432.119C226.962 448.984 257.26 458.781 281.47 463.686C291.314 465.68 300.086 457.912 300.086 447.914V441.745C300.086 432.527 307.593 425.055 316.853 425.055H367.379C376.639 425.055 384.146 417.583 384.146 408.366V328.662C384.146 325.59 386.649 323.099 389.736 323.099H408.417C419.408 323.099 426.953 312.892 422.882 302.73C413.443 279.166 397.01 242.824 380.751 206.868L380.75 206.866C379.224 203.491 377.7 200.12 376.183 196.763ZM306.955 239.432C306.955 249.238 314.892 257.188 324.683 257.188C334.473 257.188 342.41 249.238 342.41 239.432C342.41 229.626 334.473 221.676 324.683 221.676C314.892 221.676 306.955 229.626 306.955 239.432Z" fill="#0089E5"/>
<ellipse cx="229.831" cy="240.089" rx="17.8547" ry="17.7534" fill="#0089E5"/>
<path fill-rule="evenodd" clip-rule="evenodd" d="M527.274 336C565.231 336 596.001 304.66 596.001 266C596.001 227.34 565.231 196 527.274 196C489.317 196 458.547 227.34 458.547 266C458.547 275.696 460.483 284.932 463.982 293.329L452.38 326.769C450.875 331.107 454.095 335.556 458.353 335.023L499.191 329.909C507.765 333.823 517.27 336 527.274 336Z" fill="#0089E5"/>
</svg>
